<?xml version="1.0" encoding="UTF-8"?>
<!-- Generator: Adobe Illustrator 17.0.0, SVG Export Plug-In . SVG Version: 6.00 Build 0)  -->
<!DOCTYPE svg PUBLIC "-//W3C//DTD SVG 1.1//EN" "http://www.w3.org/Graphics/SVG/1.1/DTD/svg11.dtd">
<svg version="1.1" id="Layer_1" xmlns="http://www.w3.org/2000/svg" xmlns:xlink="http://www.w3.org/1999/xlink" x="0px" y="0px" width="704px" height="180px" viewBox="0 0 704 180" enable-background="new 0 0 704 180" xml:space="preserve">
<path id="svg_2" fill="#FF0004" d="M476.19,3.05c7.47-1.73,14.59-1.95,22.22-1.86c20.6-0.22,41.14,9.19,56.38,22.73  c37.9,33.17,29.08,39.47,27.95,54.24c0.22,0.39,0.27,1.27,0.29,2.16c-5.33,12.12-5.69,28.13-0.65,28.26  c1.41,38.11-26.09,45.88-27.62,47.31c-14.03,12.47-31.99,21.02-50.83,22.28c-11.41,1.05-19.39,0.77-28.81-1.65  c-24.39-5.47-45.94-21.93-57.93-43.82c-15.84-28.15-14.48-65.08,3.73-91.82C433.52,21.76,453.77,7.82,476.19,3.05z"/>
<path id="svg_26" fill="#FFFFFF" d="M591.1,72.3l73-4.7l-2.1,51.5h-70.9C576.2,108.3,574.401,82.5,591.1,72.3z"/>
<path id="svg_3" fill="#FFAA00" d="M593.4,3.4c7.89-2.11,14.98-2.04,23.04-2.19c4.62-0.05,10.87,0.69,15.42,1.62  c19.47,3.99,37.56,14.64,50.35,29.87c12.53,14.84,20.23,33.84,20.77,53.32c0.94,18.47-4.11,37.14-14.35,52.55  c-13.42,20.83-36.03,35.54-60.55,39.19c-8.67,0.45-16.18,1.54-26.05,0.18c-17.54-2-34.29-10.05-47.27-21.95  c1.53-1.43,3.33-3.1,4.83-4.56l-9.13-0.03l-4.95-5.52l18.36,0.19l4.03-5.24l-26.52-0.42l-3.24-4.57l32.29-0.13l3.422-5.6  l-38.942,0.2l-2.4-4.99c13.87-0.28,29.553,0,43.423-0.1l2.417-5.43l-47.57,0.04l-2.08-5.15l51.46-0.15l2.12-5.85  c-5.04-0.13-10.38-0.14-15.41-0.03c0.29-1.66,0.55-3.33,0.82-5c4.27,0.01,8.55,0.01,12.84,0.02c4.2,8.63,15.89,11.07,23.98,6.86  c0.77-2.03,1.07-4.19,1.7-6.27l0.42-1.94c0.05,4.53,1.72,8.05,4.61,9.42c4.57,2.28,9.98,0.97,14.2-1.5c0.2,0.59,0.61,1.76,0.81,2.35  c2.45-0.04,4.91-0.06,7.37-0.06c1.38-7.6,2.98-15.15,4.35-22.74c1.12-4.39-2.51-8.34-6.53-9.43c-5.41-1.39-11.38-1.28-16.68,0.5  c-1.64,2.17-1.9,5.02-2.75,7.53c4.58-0.84,9.31-1.75,13.97-0.97c1.93,0.24,2.09,2.25,2.28,3.95c-5.52,0.54-10.45-0.18-15.49,2.61  c-3.12,1.6-4.78,3.36-5.87,8c-2.87,1.16-5.69,2.94-8.92,2.54c-4.32-0.02-8.75-2.93-9.26-7.46c-0.52-5.57,1.28-11.97,5.89-15.46  c4.62-3.25,10.47-1.55,15.3,0.23c0.41-2.82,0.79-5.64,1.09-8.48c-9.29-3.3-22.24-1.82-28.07,7.17l-0.19-2.26  c-18.57-0.07-37.15,0.03-55.72-0.09c0.26-1.75,0.53-3.51,0.79-5.26l54.53,0.35l-1.45-5.75l-52.91-0.13l1.97-5.09l49.74-0.05  l-2.275-5.59c-13.75,0.07-31.905,0.07-45.655,0.04l3.026-4.93c13.16-0.24,27.144,0.07,40.324-0.1l-3.74-5.52  c-11.01-0.1-22.93,0.18-33.94-0.06l3.65-4.87l27.83-0.05l-4.566-5.76l-20.074-0.2l3.77-5.15l12.69,0.18  c-1.9-2.15-3.83-4.27-5.94-6.21C565.64,13.79,578.94,6.84,593.4,3.4L593.4,3.4L593.4,3.4L593.4,3.4L593.4,3.4z"/>
<path id="svg_4" fill="#004489" d="M213.89,39.82c16.83-6.46,35.92-5.97,52.84-0.05c-1.33,8.01-2.73,16.01-4.08,24.02  c-9.19-4.45-19.66-6.46-29.83-5.18c-4.43,0.62-9.43,2.32-11.51,6.64c-1.27,2.84,0.39,6.03,2.67,7.79  c8.3,6.54,19.04,8.98,27.19,15.77c6.54,5,11.51,12.73,11.13,21.22c0.46,10.73-5.09,21.22-13.78,27.39  c-11.1,7.97-25.12,10.33-38.51,10.47c-10.96-0.61-22.21-1.62-32.43-5.92c1-8.28,2.74-16.47,4.04-24.72  c11.41,5.49,24.21,8.83,36.91,7.08c3.91-0.7,8.03-2.02,10.69-5.14c2.13-2.4,2.52-6.29,0.59-8.91c-2.87-4-7.53-6.05-11.78-8.2  c-9.09-4.22-18.62-9.05-24.38-17.6c-5.38-7.75-4.86-18.29-0.83-26.52C196.96,49.31,205.16,43.32,213.89,39.82L213.89,39.82  L213.89,39.82C213.89,39.82,213.89,39.82,213.89,39.82z"/>
<path id="svg_5" fill="#FFAA00" d="M1.01,37.24c15.68,0.02,31.36,0.01,47.04-0.01c3.96-0.03,8.32,0.65,11.21,3.61  c2.45,2.43,3.1,5.96,3.76,9.21c3.11,15.58,6.55,31.11,9.62,46.7C64.8,77.46,49.87,61.46,31.58,51.63  c-9.6-5.3-19.95-9.16-30.58-11.82C1,39.17,1.01,37.88,1.01,37.24z"/>
<path id="svg_6" fill="#004489" d="M104.45,37.19c10.59-0.18,21.17-0.03,31.76-0.08c-15.36,36.35-31.23,72.48-46.64,108.81  c-10.58,0.18-21.17,0.04-31.76,0.08c-8.74-31.46-17.69-62.86-26.23-94.37c18.29,9.83,33.22,25.83,41.06,45.12L72.77,97  c0.97,4.6,1.94,9.21,2.76,13.85C85.31,86.35,94.76,61.72,104.45,37.19L104.45,37.19L104.45,37.19L104.45,37.19  C104.45,37.19,104.45,37.19,104.45,37.19z"/>
<path id="svg_7" fill="#004489" d="M147.86,37.1c9.95,0,19.91,0.05,29.86-0.02c-6,36.33-12.3,72.61-18.5,108.91  c-9.99,0.02-19.98,0-29.97,0.01C135.47,109.7,141.55,73.38,147.86,37.1L147.86,37.1L147.86,37.1L147.86,37.1z"/>
<path fill="#004489" d="M342.65,37.16c-8.49-0.01-16.99-0.21-25.47,0.08c-5.62,0.2-11.1,3.38-13.1,8.8  c-14.82,33.37-29.55,66.79-44.28,100.2c10.51,0.05,21.01-0.01,31.52,0.03c2.04-5.43,4.19-10.81,6.15-16.27  c12.62-0.15,25.26-0.25,37.88,0.06c1.08,5.41,2.35,10.79,3.52,16.19c9.26,0.01,18.52,0.02,27.78-0.01  C358.82,109.84,350.64,73.52,342.65,37.16z M306.31,107.06c5.15-13.13,10.3-26.26,15.26-39.47c3.11,13.12,5.82,26.34,8.7,39.52  C322.28,107.09,314.29,107.16,306.31,107.06z"/>
<path id="svg_11" fill="#FFFFFF" d="M0,0"/>
<path id="svg_12" fill="#FFFFFF" d="M414.49,112.38c2.58-13.19,4.39-26.53,7.1-39.69c4.64,0.1,9.27,0.08,13.91,0.01  c0.96,7.51,1.04,15.08,1.33,22.63c3.54-7.88,6.47-15.16,10.05-22.58c4.93,0.04,9.87-0.15,14.8,0.19  c-2.38,13.16-4.52,26.37-7.11,39.5c-2.73-0.05-5.46-0.05-8.18-0.04c1.76-9.8,3.64-19.58,5.2-29.41c-4.58,9.6-8.11,19.66-12.39,29.4  l-9.37,0.05l-0.24-3.37c-0.34-8.75-0.9-17.49-1.45-26.23l-5.21,29.61L414.49,112.38z"/>
<path id="svg_13" fill="#FFFFFF" d="M682.29,73.45c2.76-0.33,5.55-0.14,8.33-0.03c-2.77,12.95-4.46,26.1-7.11,39.08  c-2.68-0.02-5.56-0.02-8.22,0.01c0.03-0.8,0.49-2.41,0.52-3.21c-2.4,2.03-5.37,4.01-8.7,3.58c-7.18-0.5-11.23-6.61-10.87-12.72  c-0.77-9.11,5.81-20.2,15.87-19.83c3.4,0.02,5.56,2.03,8.03,3.8C680.88,80.56,681.48,77.1,682.29,73.45z"/>
<path id="svg_14" fill="#FFFFFF" d="M465.95,80.9c6.65-1.63,14.63-2.58,20.52,1.66c3.35,2.38,2.39,6.92,1.92,10.4  c-1.29,6.48-2.39,13.01-3.88,19.46c-2.35-0.03-4.71-0.01-7.05,0.05c-0.04-0.72-0.11-2.17-0.14-2.9c-4.36,3.06-10.68,4.72-15.41,1.58  c-4.89-3.57-4.21-11.4,0-15.24c4.72-4.68,11.56-3.89,17.69-4.11c0.24-1.59,0.21-4.06-1.81-4.51c-4.69-1.55-9.64,0.32-14.39,0.74  C464.2,85.65,464.66,83.09,465.95,80.9z"/>
<path id="svg_15" fill="#FFFFFF" d="M498,80.27c5.08-1.22,10.63-1.09,15.75-0.22l-1.24,6.86c-3.86-0.08-8.36-1.73-11.73,0.76  c-1.29,1.47,0.03,3.58,1.47,4.27c2.99,1.6,6.91,1.92,8.91,5c2.88,5.46-0.06,13.26-6.25,14.81c-5.78,1.37-11.94,0.99-17.69-0.38  c0.38-2.33,0.87-4.64,1.37-6.95c4.01,0.95,8.27,1.91,12.37,0.92c1.6-0.74,2.26-2.26,1.61-3.91c-3.01-2.92-7.96-2.94-10.5-6.47  C489.09,89.73,491.75,81.56,498,80.27L498,80.27z"/>
<path id="svg_18" fill="#FFFFFF" d="M650.36,85c2.2-2.96,5.31-5.35,9.22-4.9c-0.55,2.38-1.07,4.76-1.55,7.14  c-2.47,0.54-5.26,0.81-7.11,2.74c-1.96,1.74-2.39,4.48-2.86,6.92c-0.99,5.11-1.43,10.33-2.89,15.34c-2.73,0.25-5.48,0.16-8.21,0.18  c1.62-10.76,3.51-21.49,5.53-32.18c2.73,0.02,5.47,0.01,8.21-0.02C650.57,81.81,650.46,83.4,650.36,85L650.36,85L650.36,85  C650.36,85,650.36,85,650.36,85z"/>
<path id="svg_20" fill="#FFAA00" d="M668.7,89.64c1.59-2.22,4.68-2.77,7.14-1.74c6.24,4.03-1.53,18.68-5.91,17.8  C661.62,105.51,664.74,94.08,668.7,89.64z"/>
<path id="svg_21" fill="#FFAA00" d="M524.11,93.85c0.04-0.25,0.13-0.77,0.17-1.03l5.49,0.12c-0.21,1.63-0.35,3.27-0.42,4.91  l-4.56,0.02C524.79,97.87,524.11,93.85,524.11,93.85z"/>
<path id="svg_22" fill="#FFAA00" d="M569.49,92.75c3.26,0.07,6.52,0.09,9.79,0.1c-0.1,1.65-0.14,3.31-0.1,4.97  c-3.52-0.05-7.04-0.07-10.56-0.06C568.88,96.08,569.15,94.41,569.49,92.75z"/>
<path id="svg_23" fill="#FF0004" d="M468.24,100.99c2.25-3.49,6.8-3.82,10.56-3.68c-0.39,2.4-0.68,5.14-2.71,6.78  c-2,2.03-6.32,2.81-7.57,1.53C467.59,104.72,467.03,102.34,468.24,100.99L468.24,100.99L468.24,100.99  C468.24,100.99,468.24,100.99,468.24,100.99z"/>
<path id="svg_24" fill="#FFAA00" d="M617.49,100.38c2.35-3.17,6.62-2.99,10.14-3.07c-0.28,2.4-0.48,5.19-2.61,6.76  c-1.96,2.11-6.57,2.49-7.62,1.61C615.14,104.52,615.85,101.85,617.49,100.38z"/>
<path id="svg_25" fill="#FF0004" d="M568.62,97.76c3.52-0.01,7.04,0.01,10.56,0.06c0.25,1.99,0.71,3.95,1.35,5.85  c-4.29-0.01-8.57-0.01-12.84-0.02C568,101.69,568.33,99.72,568.62,97.76z"/>
<g id="svg_31">
	<path id="svg_16" fill="#FFFFFF" d="M537.43,81.6c5.48-2.84,12.99-3.14,17.94,0.94c4.4,4.15,3.23,10.69,2.2,15.99   c-6.62-0.01-13.24-0.1-19.86,0.04c0.84,2.46,1.94,5.15,4.49,6.29c4.78,1.71,10.05,0.66,14.57-1.38c-0.52,2.58-1.03,5.16-1.52,7.75   c-6.54,1.58-14.01,2.1-20.02-1.47c-4.15-2.38-5.83-7.36-5.88-11.91c0.07-1.64,0.21-3.28,0.42-4.91   C530.93,88.46,533.15,83.84,537.43,81.6z"/>
	<path id="svg_19" fill="#FF0004" d="M539.03,92.38c1.19-2.86,3.3-6.64,7.02-6.01c3.09,0.1,4.17,3.5,4.71,6.01   C546.85,92.52,542.94,92.53,539.03,92.38z"/>
</g>
<path id="svg_10" fill="#FFFFFF" d="M519.57,72.69c2.75,0.05,5.5,0.04,8.24,0.22c-0.26,1.75-0.53,3.51-0.79,5.26  c-0.06,0.5-0.2,1.51-0.27,2.01c1.66,0.09,3.34,0.13,5.01,0.18c-0.39,2.15-0.8,4.31-1.2,6.46c-1.69-0.03-3.39-0.07-5.06-0.11  c-0.45,2.03-0.87,4.06-1.22,6.11c-0.04,0.26-0.13,0.78-0.17,1.03c-0.67,3.85-2.44,10.59-1.73,11.59c1.32,1.36,4.43,0.23,6.66,0.28  l-1.81,5.68c-3.22,1.36-6.95,1.34-10.29,0.49c-2.21-0.4-3.97-2.56-3.3-4.84C515.38,95.56,517.58,84.14,519.57,72.69L519.57,72.69  L519.57,72.69L519.57,72.69L519.57,72.69z"/>
<path id="svg_17" fill="#FFFFFF" d="M563.16,80.45c2.85-0.34,5.74-0.18,8.61-0.17c-0.18,1.04-0.55,3.13-0.74,4.17  c2.67-2.94,6.19-4.7,10.17-5.01c-1.1,2.85-2.16,5.71-3.06,8.63c-3.49,0.1-7,1.38-8.65,4.68c-0.34,1.66-0.61,3.33-0.87,5.01  c-0.29,1.96-0.62,3.93-0.93,5.89c-0.27,1.67-0.53,3.34-0.82,5c-0.22,1.2-0.49,2.39-0.82,3.56c-2.88,0.29-5.77,0.18-8.65,0.19  C559.5,101.79,560.91,91.03,563.16,80.45L563.16,80.45L563.16,80.45L563.16,80.45L563.16,80.45z"/>
</svg>